# xmcd CD database file
#
# Track frame offsets:
#	150
#	20443
#	47104
#	71829
#	92606
#	110227
#	136546
#	156678
#	172585
#	190959
#	210555
#	221783
#
# Disc length: 3310 seconds
#
# Revision: 0
# Processed by: cddbd v1.4PL0 Copyright (c) Steve Scherf et al.
# Submitted via: CDex 1.50Beta5
#
DISCID=ad0cec0c
DTITLE=Saxofour - Vocalizing Reeds
DYEAR=2002
DGENRE=Jazz
TTITLE0=Mehrfach gesättigte Fettsäuren auf dem Weg ins Paradies
TTITLE1=Bist du Afro
TTITLE2=Urgestrausst
TTITLE3=Blue Song
TTITLE4=Apfelschnaps
TTITLE5=Sayings
TTITLE6=Wenn die Waschmaschine Tango tanzt
TTITLE7=A La Menthe
TTITLE8=For H. K.
TTITLE9=Mach Dir keine Sorgen
TTITLE10=White and Pink Rabbit
TTITLE11=Tender
EXTD=YEAR: 2002
EXTT0=
EXTT1=
EXTT2=
EXTT3=
EXTT4=
EXTT5=
EXTT6=
EXTT7=
EXTT8=
EXTT9=
EXTT10=
EXTT11=
PLAYORDER=
